<svg xmlns="http://www.w3.org/2000/svg" viewBox="0 0 885.27 829.94"><defs><style>.cls-1{fill:#31d0d2;}.cls-2{fill:#1c8e8e;}.cls-2,.cls-4,.cls-5{fill-rule:evenodd;}.cls-3{fill:#e1d9a2;}.cls-4{fill:#d8d191;}.cls-5{fill:#053c48;}</style></defs><title>empresa</title><g id="Camada_2" data-name="Camada 2"><g id="Layer_1" data-name="Layer 1"><rect class="cls-1" x="33.55" y="141.94" width="815.26" height="659.42" rx="69.64" ry="69.64"/><path class="cls-2" d="M468,356.72C299.33,478.13,187.45,641.51,147.23,801.36H779.17a69.84,69.84,0,0,0,69.64-69.64V211.58a69.12,69.12,0,0,0-1.17-12.69C721.68,216.89,589.19,269.45,468,356.72Z"/><rect class="cls-3" x="392.91" y="337.16" width="98.83" height="154.83"/><path class="cls-4" d="M392.91,416.78V492h98.83V340.19c-8,5.38-15.9,10.86-23.77,16.53A947,947,0,0,0,392.91,416.78Z"/><path class="cls-5" d="M774.61,110.65h-166V55.33A55.35,55.35,0,0,0,553.28,0H332a55.36,55.36,0,0,0-55.33,55.33v55.32h-166A110.67,110.67,0,0,0,0,221.32V719.27A110.67,110.67,0,0,0,110.66,829.94l663.95,0A110.65,110.65,0,0,0,885.27,719.28v-498A110.68,110.68,0,0,0,774.61,110.65ZM332,71.78c0-15.26,12.39-16.45,27.67-16.45h166c15.27,0,27.66,1.19,27.66,16.47v38.85H332Zm498,647.48a55.35,55.35,0,0,1-55.33,55.34H110.66a55.35,55.35,0,0,1-55.33-55.33V415H350.77v64.81A54.45,54.45,0,0,0,405,534.06h75.18a54.55,54.55,0,0,0,54.27-54.27V415H829.93ZM406.11,478.71V351.23h73V478.71ZM829.93,359.63H534.5v-9.47a54.46,54.46,0,0,0-54.27-54.27H405a54.36,54.36,0,0,0-54.27,54.27v9.47H55.33V221.31A55.35,55.35,0,0,1,110.66,166H774.61a55.35,55.35,0,0,1,55.33,55.33Z"/></g></g></svg>