<?xml version="1.0" encoding="utf-8"?>
<!-- Generator: Adobe Illustrator 21.0.2, SVG Export Plug-In . SVG Version: 6.00 Build 0)  -->
<svg version="1.1" id="Camada_1" xmlns="http://www.w3.org/2000/svg" xmlns:xlink="http://www.w3.org/1999/xlink" x="0px" y="0px"
	 viewBox="0 0 3534.9 710.7" style="enable-background:new 0 0 3534.9 710.7;" xml:space="preserve">
<style type="text/css">
	.st0{fill:#053C48;}
	.st1{fill:#E1D9A2;}
	.st2{fill:#31D0D2;}
</style>
<g>
	<path class="st0" d="M1404.6,542.3H1334V341.2l-40.8,201.1h-54l-46.9-201.1v201.1h-61.9V184.1h101.8l35.6,185.7l32-185.7h104.9
		L1404.6,542.3z"/>
	<path class="st0" d="M1606.7,542.3h-154V184.1h153v45.5H1531v96.7h67.5v44H1531v126.4h75.7V542.3z"/>
	<path class="st0" d="M1944.3,490.1c0,14-6.8,26.5-20.5,37.4c-15.7,12.6-36,18.9-60.9,18.9c-26.6,0-48.1-5.3-64.5-15.9
		c-17.7-11.6-26.6-27.8-26.6-48.6V251.1c0-22.8,6.5-39.7,19.4-50.7c15-12.6,38.9-18.9,71.6-18.9c28.3,0,49.5,6.3,63.4,18.9
		c11.9,10.9,17.9,25.8,17.9,44.5v65H1873v-71.6c0-3.1-0.9-5.3-2.7-6.7c-1.8-1.4-4.6-2.1-8.6-2.1c-3.9,0-6.9,0.7-8.8,2.1
		s-2.9,3.6-2.9,6.7V488c-0.1,2.6,1.3,5.1,3.5,6.4c2.5,1.6,5.4,2.4,8.3,2.3c3.9,0,6.8-0.8,8.6-2.3c1.8-1.6,2.8-4,2.7-6.4v-89h71.1
		L1944.3,490.1z"/>
	<path class="st0" d="M2171.5,481.4c0,20.8-8.3,36.8-24.8,48.1c-16.5,11.3-38.1,16.9-64.7,16.9c-26.6,0-48.3-5.5-65-16.4
		c-16.7-10.9-25.1-26.9-25.1-48.1V251.1c0-22.8,6.5-39.7,19.4-50.7c14.7-12.6,38.4-18.9,71.1-18.9c30,0,52.3,6,67,17.9
		s22,29,22,51.2L2171.5,481.4L2171.5,481.4z M2095.3,485.9v-245c0-3.8-1.1-6.5-3.2-8.2c-2.1-1.7-5.5-2.6-10.1-2.6s-8.1,0.9-10.4,2.6
		c-2.3,1.7-3.5,4.5-3.4,8.2v245c-0.2,3.1,1.1,6,3.4,8c2.3,1.9,5.8,2.8,10.4,2.8c4.6,0,8-0.9,10.1-2.8
		C2094.2,492,2095.2,489.4,2095.3,485.9L2095.3,485.9z"/>
	<path class="st0" d="M2418.1,542.3h-80.8l-53.7-191v191H2218V184.1h89.5l45,163.4V184.1h65.5L2418.1,542.3z"/>
	<path class="st0" d="M2630.4,230.2h-44v312.1h-78.3V230.2h-44v-46h166.3V230.2z"/>
	<path class="st0" d="M2870.4,542.3h-78.3c-4.4-5.1-7.5-12.7-9.2-22.8c-1.7-10.1-2.6-24.3-2.6-42.7v-88c0-8.9-2.2-14.2-6.7-16.1
		c-4.4-1.9-10.6-2.8-18.4-2.8v172.4H2677V184.1h97.2c25.9,0,46.1,5.8,60.6,17.3s21.7,26.8,21.7,45.8V290c0,11.9-1.9,21-5.6,27.5
		c-6.8,11.9-21,21.4-42.7,28.5c20,5.1,33.7,13.2,41.2,24.1c4.7,7.2,7.1,17.1,7.1,29.7v77.4c0.7,12.7,1.3,22.2,2,28.7
		C2861,526,2864.9,538.2,2870.4,542.3z M2780.4,307v-58.5c0-8.8-2.2-14.2-6.7-16c-4.4-1.8-10.6-2.8-18.4-2.8v96.2
		c8.2,0,13.5-0.5,16-1.5C2777.3,321.6,2780.3,315.8,2780.4,307L2780.4,307z"/>
	<path class="st0" d="M3124.6,542.3h-77.3l-13.6-96.2h-36.2l-13.6,96.2h-77.3l59-358.1h100L3124.6,542.3z M3026.9,397l-11.5-107.5
		l-11,107.4L3026.9,397z"/>
	<path class="st0" d="M3301.1,230.2h-44v312.1h-78.3V230.2h-44v-46h166.3V230.2z"/>
	<path class="st0" d="M3528.8,542.3h-77.3l-13.6-96.2h-36.2l-13.6,96.2h-77.3l59-358.1h100L3528.8,542.3z M3431.1,397l-11.5-107.4
		l-11,107.4H3431.1z"/>
</g>
<title>logo</title>
<path class="st1" d="M259.4,436c-7.1,0-34.2,40-38.8,49c-10,19.7,1.2,27.2,19.9,33c1.4-5.9,28.1-43.5,32-47.2
	C279.5,455.9,280.8,436.1,259.4,436z"/>
<path class="st1" d="M325.2,495.2c-21.1,2-53.2,46.4-49,58.2c5.2,14.4,20.9,16.9,34.2,14.4C316.6,558.9,364.7,491.4,325.2,495.2z"/>
<path class="st1" d="M397.6,550c-23.2,1.7-37.6,27.3-50,45.2c1.2,14,11.2,25.4,25.5,26.4C379.6,614.2,439.3,547,397.6,550z"/>
<path class="st1" d="M503.5,659c9.2,1.7,16.8-2.9,22.9-9.4c-8.5-5.2-16.5-11.1-24-17.6C504.5,634.5,512.1,644.6,503.5,659z"/>
<path class="st1" d="M438.6,612.6c-1.9,5.4-21.9,28.9-26.5,34.3c7.7,13.2,13.2,18,17.6,17.3c9.5-1.5,29.9-33.1,27.3-43.7
	C455.9,615.9,439.2,610.9,438.6,612.6z"/>
<path class="st2" d="M745,51.8c-2.2-3.6-6.8-4.9-10.5-2.9l-75.6,43.7c-3.6,2.2-4.9,6.8-2.9,10.5L828,401c2.2,3.6,6.8,4.9,10.5,2.9
	l75.6-43.7c3.6-2.2,4.9-6.8,2.9-10.5L745,51.8z"/>
<path class="st2" d="M305.3,90.9l-75.6-43.7c-3.7-2-8.3-0.7-10.5,2.9L47.2,348c-2,3.7-0.7,8.3,2.9,10.5l75.6,43.6l0,0
	c1.8,1,3.9,1.2,5.8,0.6c2-0.5,3.7-1.8,4.7-3.5l172-297.9C310.2,97.7,308.9,93,305.3,90.9z"/>
<path class="st1" d="M533.9,297.1l-66,9.2c-30.5,74.6-88.1,100-164.2,73.1c-13-4.6-20.9-16.9-15.6-30.7l50.9-132
	c1.7-4.4,4.7-8.1,8.6-10.8l21.6-14.6l-42-30.6l-133,230.5l19.1,21.1c29.2-44.7,108.1-19.6,110,36.7c35.8-2.4,63.1,19.5,62.2,55.9
	c44.5-8.1,80.9,19.7,70.5,65.5c1.8,0.3,3.5,0.7,5.3,1.1c3.3-20.8,30.9-26.9,42.4-8.7c25,39.5,52.8,51.6,60.3,54.3
	c10.3-0.1,16.8-11.8,20.3-20.1c-31.6-19.7-56.3-38.1-81.8-65.6c-20.7-22.2,13.1-53.8,33.8-31.5c25.4,27.4,49.6,43.9,81.3,63.2
	c6.8-0.5,16.9-1.5,22.9-4.8c-40.2-20.8-71.4-55.1-98-91c-18.1-24.4,19-51.9,37.1-27.5c25.7,34.6,57,69.5,98.6,84.7
	c18,4.5,36.2-20.6,31.3-40.3C627,437.6,582,371.5,533.9,297.1z"/>
<path class="st1" d="M490.4,165l-110.9,75.1l-39.2,101.7c49.7,9.7,73.7-19.3,88.9-63.8c2.9-8.5,10.5-14.6,19.5-15.6l93.5-13.1
	c10.7-1.5,18.3,3.7,23.8,12.2c45.5,70.5,86.2,133.6,156.4,176.8l42.5-54.3L636.2,161.3L490.4,165z"/>
<path class="st0" d="M785,28.6C770.1,2.9,737.1-5.9,711.4,8.9l-75.7,43.6c-21.9,12.7-32.1,39-24.3,63.2L482.6,119
	c-4.7,0.1-9.3,1.7-13.1,4.5l-59.6,40.3l-59.6-43.5c11.9-25.3,2.4-55.5-21.8-69.5L252.8,7.2c-25.8-14.8-58.7-6-73.6,19.7l-172,298
	c-14.9,25.8-6.1,58.7,19.7,73.6l75.7,43.6c21.7,12.5,49.1,8.5,66.2-9.8l18.2,19.2c-36.5,51.1-10.5,96.3,43.9,111.7
	c9.5,34.2,39,52.5,73.6,51.5c8.8,29.9,35.3,51,66.4,52.9c25.5,43.6,59.8,56.9,98.5,26.5c40.2,25.2,82.2,6.4,104.5-31.6
	c28.3-4.6,46.1-28.8,55.2-54.2c25.3-3,49.2-13.1,59.7-38.1c46.1-6.2,76.8-52.6,65.2-97.7l35.6-45.6c15.7,23.7,47.2,31.1,71.8,16.9
	l75.7-43.6c25.7-14.9,34.6-47.8,19.7-73.6L785,28.6z M136.2,399.3c-1,1.8-2.7,3-4.7,3.5c-2,0.6-4,0.3-5.8-0.6l0,0l-75.6-43.7
	c-3.6-2.2-4.8-6.8-2.9-10.5l172-297.9c2.2-3.6,6.8-4.9,10.5-2.9l75.6,43.6c3.6,2.2,4.9,6.8,2.9,10.5L136.2,399.3z M240.5,518
	c-18.6-5.8-29.8-13.2-19.9-33c4.5-8.9,31.6-49,38.8-49c21.4,0.1,20.1,19.9,13.1,34.7C268.6,474.4,241.8,512.1,240.5,518z
	 M310.5,567.9c-13.3,2.4-29.1-0.1-34.2-14.4c-4.2-11.8,27.9-56.2,49-58.2C364.7,491.4,316.6,558.9,310.5,567.9L310.5,567.9z
	 M373.2,621.6c-14.4-1-24.4-12.4-25.5-26.4c12.4-17.9,26.8-43.5,50-45.2C439.3,547,379.6,614.2,373.2,621.6L373.2,621.6z
	 M429.8,664.3c-4.4,0.7-9.9-4.1-17.6-17.3c4.5-5.4,24.6-29,26.5-34.3c0.6-1.7,17.3,3.3,18.4,8C459.6,631.1,439.2,662.7,429.8,664.3
	L429.8,664.3z M503.5,659c8.6-14.4,0.9-24.5-1.1-27c7.5,6.5,15.5,12.4,24,17.6C520.3,656.1,512.7,660.7,503.5,659z M678,524.4
	c-41.6-15.1-72.8-50-98.6-84.6c-18.1-24.4-55.2,3.1-37.1,27.5c26.6,35.9,57.9,70.2,98,91c-6,3.3-16.1,4.3-22.9,4.8
	c-31.7-19.3-55.8-35.9-81.3-63.2c-20.7-22.3-54.5,9.2-33.8,31.5c25.5,27.5,50.2,45.9,81.8,65.6c-3.5,8.3-10,20-20.3,20.1
	c-7.5-2.7-35.3-14.8-60.3-54.3c-11.4-18.2-39.1-12.1-42.4,8.7c-1.8-0.4-3.5-0.8-5.3-1.1c10.4-45.8-26-73.5-70.5-65.5
	c1-36.4-26.4-58.2-62.2-55.9c-1.9-56.4-80.8-81.4-110-36.7L194,391.2l133.1-230.5l42,30.6l-21.6,14.6c-3.9,2.6-6.9,6.4-8.6,10.8
	l-50.9,132c-5.3,13.8,2.6,26.1,15.6,30.7c76,26.9,133.7,1.5,164.2-73.1l66-9.2c48.1,74.4,93.1,140.5,175.4,187
	C714.2,503.8,696,529,678,524.4z M722.3,438.3C652.1,395.1,611.4,332,565.9,261.5c-5.5-8.5-13.1-13.7-23.8-12.2l-93.5,13.1
	c-9,1-16.6,7-19.5,15.6c-15.2,44.5-39.2,73.5-88.9,63.8l39.2-101.7l111-75.1l145.8-3.7L764.8,384L722.3,438.3z M914.1,360.2
	l-75.6,43.7c-3.7,2-8.3,0.7-10.5-2.9L656,103.1c-2-3.7-0.7-8.3,2.9-10.5l75.5-43.7c3.7-2,8.4-0.7,10.6,2.9l172,297.9
	C919,353.4,917.7,358,914.1,360.2z"/>
<g>
	<path class="st2" d="M1381.6,522.3H1311V321.2l-40.8,201.1h-54l-46.9-201.1v201.1h-61.9V164.1h101.8l35.6,185.7l32-185.7h104.9
		L1381.6,522.3z"/>
	<path class="st2" d="M1583.7,522.3h-154V164.1h153v45.5H1508v96.7h67.5v44H1508v126.4h75.7V522.3z"/>
	<path class="st2" d="M1921.3,470.1c0,14-6.8,26.5-20.5,37.4c-15.7,12.6-36,18.9-60.9,18.9c-26.6,0-48.1-5.3-64.5-15.9
		c-17.7-11.6-26.6-27.8-26.6-48.6V231.1c0-22.8,6.5-39.7,19.4-50.7c15-12.6,38.9-18.9,71.6-18.9c28.3,0,49.5,6.3,63.4,18.9
		c11.9,10.9,17.9,25.8,17.9,44.5v65H1850v-71.6c0-3.1-0.9-5.3-2.7-6.7c-1.8-1.4-4.6-2.1-8.6-2.1c-3.9,0-6.9,0.7-8.8,2.1
		s-2.9,3.6-2.9,6.7V468c-0.1,2.6,1.3,5.1,3.5,6.4c2.5,1.6,5.4,2.4,8.3,2.3c3.9,0,6.8-0.8,8.6-2.3c1.8-1.6,2.8-4,2.7-6.4v-89h71.1
		L1921.3,470.1z"/>
	<path class="st2" d="M2148.5,461.4c0,20.8-8.3,36.8-24.8,48.1c-16.5,11.3-38.1,16.9-64.7,16.9c-26.6,0-48.3-5.5-65-16.4
		s-25.1-26.9-25.1-48.1V231.1c0-22.8,6.5-39.7,19.4-50.7c14.7-12.6,38.4-18.9,71.1-18.9c30,0,52.3,6,67,17.9s22,29,22,51.2
		L2148.5,461.4L2148.5,461.4z M2072.3,465.9v-245c0-3.8-1.1-6.5-3.2-8.2c-2.1-1.7-5.5-2.6-10.1-2.6s-8.1,0.9-10.4,2.6
		c-2.3,1.7-3.5,4.5-3.4,8.2v245c-0.2,3.1,1.1,6,3.4,8c2.3,1.9,5.8,2.8,10.4,2.8c4.6,0,8-0.9,10.1-2.8
		C2071.2,472,2072.2,469.4,2072.3,465.9L2072.3,465.9z"/>
	<path class="st2" d="M2395.1,522.3h-80.8l-53.7-191v191H2195V164.1h89.5l45,163.4V164.1h65.5L2395.1,522.3z"/>
	<path class="st2" d="M2607.4,210.2h-44v312.1h-78.3V210.2h-44v-46h166.3V210.2z"/>
	<path class="st2" d="M2847.4,522.3h-78.3c-4.4-5.1-7.5-12.7-9.2-22.8c-1.7-10.1-2.6-24.3-2.6-42.7v-88c0-8.9-2.2-14.2-6.7-16.1
		c-4.4-1.9-10.6-2.8-18.4-2.8v172.4H2654V164.1h97.2c25.9,0,46.1,5.8,60.6,17.3s21.7,26.8,21.7,45.8V270c0,11.9-1.9,21-5.6,27.5
		c-6.8,11.9-21,21.4-42.7,28.5c20,5.1,33.7,13.2,41.2,24.1c4.7,7.2,7.1,17.1,7.1,29.7v77.4c0.7,12.7,1.3,22.2,2,28.7
		C2838,506,2841.9,518.2,2847.4,522.3z M2757.4,287v-58.5c0-8.8-2.2-14.2-6.7-16c-4.4-1.8-10.6-2.8-18.4-2.8v96.2
		c8.2,0,13.5-0.5,16-1.5C2754.3,301.6,2757.3,295.8,2757.4,287L2757.4,287z"/>
	<path class="st2" d="M3101.6,522.3h-77.3l-13.6-96.2h-36.2l-13.6,96.2h-77.3l59-358.1h100L3101.6,522.3z M3003.9,377l-11.5-107.5
		l-11,107.4L3003.9,377z"/>
	<path class="st2" d="M3278.1,210.2h-44v312.1h-78.3V210.2h-44v-46h166.3V210.2z"/>
	<path class="st2" d="M3505.8,522.3h-77.3l-13.6-96.2h-36.2l-13.6,96.2h-77.3l59-358.1h100L3505.8,522.3z M3408.1,377l-11.5-107.4
		l-11,107.4H3408.1z"/>
</g>
</svg>
