<svg xmlns="http://www.w3.org/2000/svg" viewBox="0 0 741.09 693.3"><defs><style>.cls-1{fill:#31d0d2;}.cls-1,.cls-2,.cls-3,.cls-4{fill-rule:evenodd;}.cls-2{fill:#1c8e8e;}.cls-3{fill:#d8d191;}.cls-4{fill:#053c48;}</style></defs><title>notificacoes</title><g id="Camada_2" data-name="Camada 2"><g id="Layer_1" data-name="Layer 1"><path class="cls-1" d="M188.4,461.7,215,623.82A23.16,23.16,0,0,0,238.14,647H261.3c12.79,0,20-10.36,20-23.16L254.74,461.71Z"/><path class="cls-2" d="M212.59,461.7A495.43,495.43,0,0,0,198,520.38l17,103.44A23.16,23.16,0,0,0,238.14,647H261.3c12.79,0,20-10.36,20-23.16L254.74,461.71Z"/><path class="cls-1" d="M46.31,299.59c0,102.32,92.92,115.79,139,115.79H394V183.79H185.27C137.7,182.29,46.31,197.27,46.31,299.59Z"/><path class="cls-2" d="M229.43,415.39H394V183.79h-1.32C318.63,253.68,263.27,333.77,229.43,415.39Z"/><path class="cls-3" d="M440.3,415.39h46V183.79h-46Z"/><path class="cls-2" d="M532.66,438.55,694.77,548.09v-497L532.66,160.64Z"/><path class="cls-4" d="M683.3,6.17l-197,131.31H185.27C83,137.48,0,197.28,0,299.59,0,386,58.87,446.4,138.95,461.71,140,468,168.66,647,168.66,647A46.35,46.35,0,0,0,215,693.3h69.48A46.33,46.33,0,0,0,330.78,647L301.07,461.7H486.34L679.69,590.6c31.63,21.09,61.39-3.73,61.39-36.26V44.83C741.09,16,712-13,683.3,6.17ZM261.3,647H238.14A23.16,23.16,0,0,1,215,623.82L188.4,461.7h66.34l26.59,162.11C281.33,636.62,274.08,647,261.3,647ZM394,415.39H185.27c-46,0-139-13.48-139-115.79s91.39-117.3,139-115.8H394Zm92.35,0h-46V183.79h46ZM694.77,548.09,532.66,438.55V160.64L694.77,51.08Z"/></g></g></svg>