<svg xmlns="http://www.w3.org/2000/svg" viewBox="0 0 579.26 963.01"><defs><style>.cls-1{fill:#053c48;}.cls-1,.cls-2,.cls-3,.cls-4,.cls-5{fill-rule:evenodd;}.cls-2{fill:#e1d9a2;}.cls-3{fill:#d8d191;}.cls-4{fill:#31d0d2;}.cls-5{fill:#1c8e8e;}</style></defs><title>user</title><g id="Camada_2" data-name="Camada 2"><g id="Layer_1" data-name="Layer 1"><path class="cls-1" d="M472.65,430.57c33.68-45.5,53.95-103.76,53.95-167.27C526.6,117.9,420.51,0,289.63,0s-237,117.91-237,263.3c0,63.51,20.28,121.77,54,167.27C44.74,452,0,510.09,0,579.27v105.3a158,158,0,0,0,158,158h37.08l-3.24,36.38a23.07,23.07,0,0,0,8.71,20.93l74.14,58a23.09,23.09,0,0,0,28.76.27l74.35-58.26a23.05,23.05,0,0,0,8.78-20.17l-3.31-37.13h38a158,158,0,0,0,158-158V579.25C579.26,510.09,534.52,452,472.65,430.57ZM105.32,263.3c0-116.33,82.52-210.64,184.31-210.64S473.94,147,473.94,263.3,391.42,473.94,289.63,473.94,105.32,379.63,105.32,263.3Zm94.44,526.59H181.92c-71.39,0-129.26-53-129.26-118.47v-79c0-56,42.47-102.57,99.39-115a228.82,228.82,0,0,0,72.08,38.87Zm89.46,119.17-48.82-37.83,29.23-345.56a214.11,214.11,0,0,0,39.07.09l29.23,345.49ZM397.35,789.9H378.56L354.2,516.62a228.33,228.33,0,0,0,73-39.17c56.93,12.4,99.39,59,99.39,115v79C526.6,736.84,468.72,789.9,397.35,789.9Z"/><path class="cls-2" d="M289.63,52.66C187.84,52.66,105.32,147,105.32,263.3s82.52,210.63,184.31,210.64S473.94,379.62,473.94,263.3,391.42,52.66,289.63,52.66Z"/><path class="cls-3" d="M404.78,228.91c-87,62.63-155.92,138.62-203.92,219a165.81,165.81,0,0,0,88.76,26c101.8,0,184.31-94.32,184.31-210.64a237.27,237.27,0,0,0-11.18-72.39Q433.37,208.39,404.78,228.91Z"/><path class="cls-3" d="M269.63,525.66,240.39,871.22l48.82,37.83,48.71-37.82L308.7,525.75A214.11,214.11,0,0,1,269.63,525.66Z"/><path class="cls-4" d="M52.66,592.42v79c0,65.42,57.87,118.47,129.26,118.47h17.84l24.38-273.57a228.82,228.82,0,0,1-72.08-38.87C95.13,489.84,52.66,536.45,52.66,592.42Z"/><path class="cls-5" d="M129,779.53a138.8,138.8,0,0,0,52.92,10.35h17.84l24.38-273.57a224,224,0,0,1-48.29-22.23C128.87,590.28,111.65,690.26,129,779.53Z"/><path class="cls-4" d="M427.2,477.45a228.33,228.33,0,0,1-73,39.17L378.56,789.9h18.79c71.37,0,129.25-53.07,129.25-118.5v-79C526.59,536.45,484.13,489.84,427.2,477.45Z"/></g></g></svg>