<svg xmlns="http://www.w3.org/2000/svg" viewBox="0 0 846.39 828.99"><defs><style>.cls-1{fill:#8ad1c7;}.cls-1,.cls-2,.cls-3,.cls-4,.cls-5,.cls-6{fill-rule:evenodd;}.cls-2{fill:#31d0d2;}.cls-3{fill:#1c8e8e;}.cls-4{fill:#e1d9a2;}.cls-5{fill:#d8d191;}.cls-6{fill:#053c48;}</style></defs><title>curriculo</title><g id="Camada_2" data-name="Camada 2"><g id="Layer_1" data-name="Layer 1"><polygon class="cls-1" points="423.89 488.65 423.19 628.83 544.24 558.13 717.94 257.26 597.6 187.79 423.89 488.65"/><path class="cls-2" d="M419.88,680.88c-5.08,2.59-17.3,7-23,7H185.27a23.16,23.16,0,0,1,0-46.33H379.92l.76-92.62H185.27a23.17,23.17,0,0,1,0-46.33H381.06l.27-32.85L415.84,410H185.27a23.16,23.16,0,0,1,0-46.33H442.58L496.07,271l-310.8,0a23.16,23.16,0,1,1,0-46.31H522.8l52.25-90.5H92.64C67.2,134.22,46,158.9,46,184.36V736.88a46,46,0,0,0,46,46.06H644.21c25.41,0,50.56-21.17,50.56-46.62V390L581.89,585.55Z"/><path class="cls-1" d="M496.07,271H389.87a766.48,766.48,0,0,0-97.43,92.64H442.58Z"/><path class="cls-1" d="M554.52,169.77a772,772,0,0,0-100.33,54.94H522.8Z"/><path class="cls-1" d="M381.33,469.76,415.84,410H255a657.81,657.81,0,0,0-57.68,92.62H381.06Z"/><path class="cls-3" d="M419.88,680.88c-5.08,2.59-17.3,7-23,7H185.27a23.16,23.16,0,0,1,0-46.33H379.92l.76-92.62H185.27a23.17,23.17,0,0,1-8.52-1.61C144,627.19,132,708.43,143.17,782.94h501c25.41,0,50.56-21.17,50.56-46.62V390L581.89,585.55Z"/><path class="cls-4" d="M778.93,105.3,698.7,59c-19.27-12-20.81-11.71-31.63,8.47l-46.32,80.24,120.34,69.48,46.32-80.23C799.44,116.28,798.51,116.78,778.93,105.3Z"/><path class="cls-5" d="M786.92,110c-53,3.22-108.09,14-163.18,32.48l-3,5.19,120.34,69.48,46.32-80.23C797.52,119.58,798.48,117.16,786.92,110Z"/><path class="cls-6" d="M822.15,76.76,701.81,7.28c-24.26-14-49.15-7.51-63.28,17L601.8,87.87H92.64C41.82,87.87,0,133.5,0,184.36V736.88A92.06,92.06,0,0,0,92,829H644.21c50.84,0,96.87-41.77,96.87-92.63V309.81l98-169.77C853.24,115.56,846.4,90.81,822.15,76.76ZM694.77,736.33c0,25.46-25.15,46.62-50.56,46.62H92a46,46,0,0,1-46-46.06V184.36c0-25.46,21.19-50.14,46.62-50.14H575.05l-52.25,90.5H185.27a23.16,23.16,0,1,0,0,46.31l310.8,0-53.49,92.65H185.27a23.16,23.16,0,0,0,0,46.33H415.84l-34.51,59.78-.27,32.85H185.27a23.17,23.17,0,0,0,0,46.33h195.4l-.76,92.62H185.27a23.16,23.16,0,0,0,0,46.33H396.93c5.66,0,17.87-4.39,23-7l162-95.33L694.77,390ZM544.24,558.13l-121,70.7.7-140.18L597.6,187.79l120.34,69.48ZM787.4,136.95l-46.32,80.23L620.75,147.69l46.32-80.24C677.89,47.29,679.43,47,698.7,59l80.23,46.31C798.51,116.78,799.44,116.28,787.4,136.95Z"/></g></g></svg>