<svg xmlns="http://www.w3.org/2000/svg" viewBox="0 0 3534.94 710.7"><defs><style>.cls-1{fill:#e1d9a2;}.cls-2{fill:#31d0d2;}.cls-3{fill:#053c48;}</style></defs><title>logo</title><g id="Camada_2" data-name="Camada 2"><g id="Layer_1" data-name="Layer 1"><path class="cls-1" d="M259.39,436c-7.13,0-34.25,40-38.77,49-10,19.73,1.21,27.18,19.85,33,1.35-5.88,28.12-43.52,32-47.22C279.51,455.85,280.82,436.07,259.39,436Z"/><path class="cls-1" d="M325.19,495.22c-21.09,2-53.24,46.42-49,58.2,5.16,14.36,20.91,16.86,34.25,14.43C316.6,558.94,364.7,491.42,325.19,495.22Z"/><path class="cls-1" d="M397.64,549.95c-23.23,1.66-37.6,27.29-50,45.19,1.16,14,11.18,25.38,25.55,26.42C379.61,614.17,439.32,547,397.64,549.95Z"/><path class="cls-1" d="M503.53,659c9.18,1.74,16.82-2.86,22.93-9.39a173.52,173.52,0,0,1-24-17.59C504.46,634.54,512.08,644.61,503.53,659Z"/><path class="cls-1" d="M438.61,612.6c-1.9,5.39-21.92,28.9-26.46,34.34,7.67,13.16,13.23,18,17.58,17.28,9.5-1.48,29.86-33.13,27.3-43.66C455.9,615.87,439.23,610.88,438.61,612.6Z"/><path class="cls-2" d="M745,51.79a7.93,7.93,0,0,0-10.52-2.9L658.86,92.58A7.93,7.93,0,0,0,656,103.1L828,401a7.93,7.93,0,0,0,10.52,2.9l75.57-43.68a7.93,7.93,0,0,0,2.9-10.52Z"/><path class="cls-2" d="M305.3,90.85,229.73,47.17a7.93,7.93,0,0,0-10.52,2.9L47.18,348a7.93,7.93,0,0,0,2.9,10.52l75.59,43.64,0,0a7.77,7.77,0,0,0,5.83.65,7.67,7.67,0,0,0,4.69-3.55l172-297.88A7.93,7.93,0,0,0,305.3,90.85Z"/><path class="cls-1" d="M533.92,297.1l-66,9.25c-30.5,74.58-88.15,100-164.16,73.07-13-4.59-20.93-16.93-15.6-30.73l50.93-132a23,23,0,0,1,8.57-10.78l21.63-14.64-42-30.63L194.2,391.17l19.14,21.15c29.22-44.7,108.08-19.64,110,36.72,35.81-2.35,63.13,19.53,62.18,55.88C430,496.86,466.37,524.64,456,570.4c1.77.3,3.53.67,5.27,1.1,3.28-20.8,30.92-26.88,42.36-8.72,25,39.48,52.78,51.63,60.29,54.32,10.29-.12,16.8-11.85,20.26-20.14-31.59-19.69-56.29-38.1-81.81-65.59-20.71-22.25,13.13-53.75,33.84-31.49,25.41,27.37,49.61,43.94,81.26,63.25,6.81-.49,16.87-1.52,22.89-4.84-40.16-20.79-71.41-55.15-98-91-18.09-24.4,19-51.91,37.1-27.51,25.73,34.65,57,69.54,98.57,84.65,18,4.54,36.22-20.62,31.29-40.26C627,437.62,582,371.53,533.92,297.1Z"/><path class="cls-1" d="M490.44,165l-110.9,75.07L340.31,341.76c49.73,9.72,73.66-19.3,88.87-63.82a23.12,23.12,0,0,1,19.46-15.57l93.54-13.1c10.69-1.48,18.31,3.72,23.77,12.19,45.47,70.48,86.21,133.61,156.4,176.81L764.81,384,636.24,161.28Z"/><path class="cls-3" d="M784.95,28.63A53.9,53.9,0,0,0,711.38,8.94L635.7,52.58a53.93,53.93,0,0,0-24.32,63.15L482.58,119a23,23,0,0,0-13.14,4.48l-59.59,40.33-59.58-43.46a53.88,53.88,0,0,0-21.81-69.51L252.78,7.21A53.9,53.9,0,0,0,179.22,26.9l-172,298a53.88,53.88,0,0,0,19.69,73.57l75.68,43.64a53.89,53.89,0,0,0,66.23-9.79l18.24,19.22c-36.54,51.07-10.53,96.32,43.89,111.74,9.48,34.24,39,52.52,73.64,51.55A73.86,73.86,0,0,0,371,667.74c25.5,43.58,59.78,56.92,98.52,26.45,40.2,25.15,82.17,6.43,104.54-31.58,28.31-4.58,46.06-28.78,55.22-54.2,25.28-3,49.19-13.07,59.65-38.08,46.08-6.16,76.83-52.57,65.19-97.71L789.76,427a53.87,53.87,0,0,0,71.81,16.86l75.68-43.64a53.88,53.88,0,0,0,19.69-73.57ZM136.16,399.26a7.67,7.67,0,0,1-4.69,3.55,7.77,7.77,0,0,1-5.83-.65l0,0L50.07,358.47A7.93,7.93,0,0,1,47.18,348l172-297.88a7.93,7.93,0,0,1,10.52-2.9L305.3,90.85a7.93,7.93,0,0,1,2.9,10.52ZM240.46,518c-18.64-5.8-29.84-13.24-19.85-33,4.52-8.93,31.64-49,38.77-49,21.43.08,20.12,19.85,13.09,34.74C268.59,474.43,241.81,512.08,240.46,518Zm70,49.89c-13.34,2.43-29.09-.07-34.25-14.43-4.23-11.78,27.92-56.18,49-58.2C364.7,491.42,316.6,558.94,310.43,567.85Zm62.78,53.71c-14.37-1-24.39-12.42-25.55-26.42,12.39-17.9,26.75-43.53,50-45.19C439.32,547,379.61,614.17,373.21,621.57Zm56.53,42.65c-4.35.68-9.92-4.12-17.58-17.28,4.54-5.44,24.56-29,26.46-34.34.61-1.72,17.29,3.27,18.43,8C459.59,631.1,439.23,662.74,429.74,664.22ZM503.53,659c8.56-14.38.93-24.46-1.06-27a173.52,173.52,0,0,0,24,17.59C520.35,656.14,512.71,660.74,503.53,659ZM678,524.41c-41.59-15.1-72.84-50-98.57-84.65-18.09-24.4-55.19,3.11-37.1,27.51,26.63,35.86,57.87,70.22,98,91-6,3.32-16.08,4.35-22.89,4.84-31.65-19.31-55.85-35.87-81.26-63.25-20.71-22.26-54.55,9.24-33.84,31.49,25.52,27.49,50.22,45.91,81.81,65.59-3.46,8.29-10,20-20.26,20.14-7.51-2.69-35.28-14.84-60.29-54.32-11.43-18.16-39.08-12.08-42.36,8.72-1.75-.43-3.51-.8-5.27-1.1,10.38-45.75-26-73.54-70.47-65.48,1-36.35-26.36-58.23-62.18-55.88-1.93-56.36-80.79-81.42-110-36.72L194.2,391.17l133.08-230.5,42,30.63-21.63,14.64a23,23,0,0,0-8.57,10.78l-50.93,132c-5.33,13.8,2.61,26.14,15.6,30.73,76,26.89,133.66,1.51,164.16-73.07l66-9.25C582,371.53,627,437.62,709.29,484.16,714.22,503.8,696,529,678,524.41Zm44.35-86.14c-70.2-43.2-110.94-106.33-156.4-176.81-5.47-8.47-13.08-13.67-23.77-12.19l-93.54,13.1a23.12,23.12,0,0,0-19.46,15.57C414,322.46,390,351.48,340.31,341.76l39.23-101.71L490.44,165l145.8-3.71L764.81,384ZM914.09,360.2l-75.57,43.68A7.93,7.93,0,0,1,828,401L656,103.1a7.93,7.93,0,0,1,2.9-10.52L734.43,48.9A7.93,7.93,0,0,1,745,51.79L917,349.68A7.93,7.93,0,0,1,914.09,360.2Z"/><path class="cls-3" d="M1410.68,545h-70.61V344L1299.3,545h-54L1198.35,344V545h-61.91V186.9h101.82l35.56,185.72,32-185.72h104.89Z"/><path class="cls-3" d="M1612.77,545h-154V186.9h153v45.54H1537v96.7h67.54v44H1537V499.51h75.72Z"/><path class="cls-3" d="M1950.44,492.86q0,21-20.47,37.35-23.54,18.93-60.88,18.93-39.91,0-64.47-15.86Q1778,515.89,1778,484.68V253.93q0-34.27,19.44-50.65,22.51-18.92,71.63-18.93,42.46,0,63.44,18.93,17.9,16.38,17.91,44.51v65h-71.12V241.19q0-4.63-2.68-6.69t-8.57-2.06q-5.89,0-8.83,2.05t-2.94,6.67V490.78a7.29,7.29,0,0,0,3.48,6.42,14.63,14.63,0,0,0,8.3,2.31q5.89,0,8.57-2.31a8.06,8.06,0,0,0,2.68-6.44v-89h71.12Z"/><path class="cls-3" d="M2177.61,484.16q0,31.21-24.81,48.09t-64.72,16.88q-39.91,0-65-16.37T1998,484.68V253.93q0-34.27,19.44-50.65,22-18.92,71.12-18.93,45,0,67,17.91t22,51.16Zm-76.23,4.56v-245q0-5.65-3.19-8.22t-10.1-2.57q-6.91,0-10.37,2.57t-3.45,8.22v245a9.72,9.72,0,0,0,3.45,8q3.45,2.83,10.37,2.82t10.1-2.82Q2101.37,493.86,2101.37,488.73Z"/><path class="cls-3" d="M2424.21,545h-80.84l-53.72-191V545h-65.49V186.9h89.54l45,163.4V186.9h65.49Z"/><path class="cls-3" d="M2636.53,233h-44V545h-78.28V233h-44v-46h166.28Z"/><path class="cls-3" d="M2876.48,545H2798.2q-6.65-7.67-9.21-22.77t-2.56-42.72v-88q0-13.3-6.67-16.12t-18.4-2.81V545h-78.28V186.9h97.21q38.88,0,60.63,17.32T2862.67,250V292.8q0,17.82-5.59,27.49-10.17,17.83-42.69,28.52,30,7.69,41.16,24.08,7.11,10.77,7.11,29.72V480q1,19,2,28.7Q2868.29,538.91,2876.48,545Zm-90-235.25V251.27q0-13.23-6.67-16t-18.4-2.8v96.19q12.27,0,16-1.53Q2786.44,323,2786.44,309.8Z"/><path class="cls-3" d="M3130.76,545H3053.5l-13.63-96.19H3003.7L2990.06,545H2912.8l59-358.15h100Zm-97.7-145.3L3021.53,292.3l-11,107.44Z"/><path class="cls-3" d="M3307.27,233h-44V545H3185V233h-44v-46h166.28Z"/><path class="cls-3" d="M3534.94,545h-77.26l-13.63-96.19h-36.17L3394.24,545H3317l59-358.15h100Zm-97.7-145.3L3425.71,292.3l-11,107.44Z"/><path class="cls-2" d="M1391.56,522.26H1321V321.19l-40.77,201.07h-54l-46.91-201.07V522.26h-61.91V164.12h101.82l35.56,185.72,32-185.72h104.89Z"/><path class="cls-2" d="M1593.65,522.26h-154V164.12h153v45.54h-74.7v96.7h67.54v44h-67.54V476.73h75.72Z"/><path class="cls-2" d="M1931.32,470.08q0,21-20.47,37.35-23.54,18.93-60.88,18.93-39.91,0-64.47-15.86-26.61-17.39-26.61-48.61V231.14q0-34.27,19.44-50.65,22.51-18.92,71.63-18.93,42.46,0,63.44,18.93,17.9,16.38,17.91,44.51v65h-71.12V218.41q0-4.63-2.68-6.69t-8.57-2.06q-5.89,0-8.83,2.05t-2.94,6.67V468a7.29,7.29,0,0,0,3.48,6.42,14.63,14.63,0,0,0,8.3,2.31q5.89,0,8.57-2.31a8.06,8.06,0,0,0,2.68-6.44V379h71.12Z"/><path class="cls-2" d="M2158.49,461.38q0,31.21-24.81,48.09T2069,526.36q-39.91,0-65-16.37t-25.07-48.09V231.14q0-34.27,19.44-50.65,22-18.92,71.12-18.93,45,0,67,17.91t22,51.16Zm-76.23,4.56v-245q0-5.65-3.19-8.22t-10.1-2.57q-6.91,0-10.37,2.57t-3.45,8.22v245a9.72,9.72,0,0,0,3.45,8q3.45,2.83,10.37,2.82t10.1-2.82Q2082.25,471.08,2082.25,465.94Z"/><path class="cls-2" d="M2405.09,522.26h-80.84l-53.72-191v191H2205V164.12h89.54l45,163.4V164.12h65.49Z"/><path class="cls-2" d="M2617.41,210.17h-44v312.1h-78.28V210.17h-44v-46h166.28Z"/><path class="cls-2" d="M2857.36,522.26h-78.28q-6.65-7.67-9.21-22.77t-2.56-42.72v-88q0-13.3-6.67-16.12t-18.4-2.81V522.26H2664V164.12h97.21q38.88,0,60.63,17.32t21.74,45.81V270q0,17.82-5.59,27.49-10.17,17.83-42.69,28.52,30,7.69,41.16,24.08,7.11,10.77,7.11,29.72v77.36q1,19,2,28.7Q2849.17,516.12,2857.36,522.26Zm-90-235.25V228.48q0-13.23-6.67-16t-18.4-2.8v96.19q12.27,0,16-1.53Q2767.32,300.25,2767.32,287Z"/><path class="cls-2" d="M3111.64,522.26h-77.26l-13.63-96.19h-36.17l-13.64,96.19h-77.26l59-358.15h100ZM3013.94,377,3002.4,269.52l-11,107.44Z"/><path class="cls-2" d="M3288.15,210.17h-44v312.1h-78.28V210.17h-44v-46h166.28Z"/><path class="cls-2" d="M3515.82,522.26h-77.26l-13.63-96.19h-36.17l-13.64,96.19h-77.26l59-358.15h100ZM3418.12,377l-11.54-107.44-11,107.44Z"/></g></g></svg>