<svg xmlns="http://www.w3.org/2000/svg" viewBox="0 0 672.92 797.82"><defs><style>.cls-1{fill:#31d0d2;}.cls-2{fill:#053c48;}.cls-3{fill:#1c8e8e;}.cls-3,.cls-5{fill-rule:evenodd;}.cls-4{fill:#e1d9a2;}.cls-5{fill:#d8d191;}</style></defs><title>logout_2</title><g id="Camada_2" data-name="Camada 2"><g id="Layer_1" data-name="Layer 1"><ellipse class="cls-1" cx="335.96" cy="461.75" rx="229.92" ry="229.03"/><path class="cls-2" d="M414.4,134V245.53C502.74,277.43,565.88,362,565.88,461.36c0,126.71-102.72,229.42-229.42,229.42S107,588.06,107,461.36c0-99.34,63.15-183.93,151.48-215.83V134C110.29,169.15,0,302.37,0,461.36,0,647.18,150.64,797.82,336.46,797.82S672.92,647.18,672.92,461.36C672.92,302.37,562.64,169.15,414.4,134Z"/><path class="cls-3" d="M409.84,352.26c-121.75,64.7-178.2,196-200.78,299.92,36.35,23.23,77.49,38.6,124,38.6,128.59,0,232.84-103.17,232.84-230.44,0-58.38-25.64-122.25-67.62-161.61C465.9,313.67,440.65,330.32,409.84,352.26Z"/><ellipse class="cls-4" cx="336.46" cy="465.9" rx="146.45" ry="145.89"/><path class="cls-5" d="M418.64,345.14C339.88,408.59,262.91,479.4,235,571.43c18.56,20,56.33,40.36,106.79,40.36,84.42,0,141.11-64.08,141.11-142.38C482.91,395.42,439.57,359.42,418.64,345.14Z"/><rect class="cls-2" x="94.55" y="191.55" width="483.83" height="100.72" rx="50.36" ry="50.36" transform="translate(578.37 -94.55) rotate(90)"/></g></g></svg>