<svg xmlns="http://www.w3.org/2000/svg" viewBox="0 0 796.84 701.12"><defs><style>.cls-1{fill:#31d0d2;}.cls-2{fill:#1c8e8e;}.cls-2,.cls-4{fill-rule:evenodd;}.cls-3{fill:#e1d9a2;}.cls-4{fill:#d8d191;}.cls-5{fill:#053c48;}</style></defs><title>vaga</title><g id="Camada_2" data-name="Camada 2"><g id="Layer_1" data-name="Layer 1"><circle class="cls-1" cx="341.06" cy="359.95" r="308.17"/><path class="cls-2" d="M446.43,230.29C299.44,336.11,204,480,174.11,619a306.71,306.71,0,0,0,167,49.11c170.2,0,308.17-138,308.17-308.17a307,307,0,0,0-76.9-203.64A780.27,780.27,0,0,0,446.43,230.29Z"/><circle class="cls-3" cx="341.06" cy="359.95" r="97.59"/><path class="cls-4" d="M389.59,275.27c-50.29,43.68-92.89,92-127.09,142.6a97.6,97.6,0,1,0,127.09-142.6Z"/><path class="cls-5" d="M783.84,87,727.35,74.64l1-57.25A16.54,16.54,0,0,0,701.51,3.57l-70.88,56.1a16.49,16.49,0,0,0-6.27,12.7l-.87,52-23.11,17A339.58,339.58,0,0,0,340.3,20.53C152.37,20.53,0,172.89,0,360.83s152.36,340.3,340.3,340.3,340.3-152.36,340.3-340.3a338.7,338.7,0,0,0-52.85-182.21L649.08,163l56.21,12.3a16.52,16.52,0,0,0,14.38-3l70.88-56.1A16.53,16.53,0,0,0,783.84,87ZM634.27,360.83c0,162.36-131.61,294-294,294s-294-131.61-294-294,131.61-294,294-294a293.31,293.31,0,0,1,222.63,102l-48.45,35.54A233.52,233.52,0,0,0,340.3,126.7c-129.3,0-234.13,104.83-234.13,234.13S211,595,340.3,595,574.43,490.13,574.43,360.83a233,233,0,0,0-32.57-119.2l48.44-35.54A292.59,292.59,0,0,1,634.27,360.83ZM321.66,374.49a23.11,23.11,0,0,0,32.3,5l67.77-49.72a87.19,87.19,0,1,1-27.36-37.26l-67.74,49.7A23.11,23.11,0,0,0,321.66,374.49ZM340.3,227.35A133.39,133.39,0,1,0,460,301.69l44.28-32.49a187,187,0,0,1,23.83,91.62c0,103.72-84.07,187.8-187.8,187.8s-187.8-84.07-187.8-187.8S236.58,173,340.3,173A187.24,187.24,0,0,1,476.9,232l-44.28,32.48A133,133,0,0,0,340.3,227.35Z"/></g></g></svg>